<svg width="40" height="40" viewBox="0 0 40 40" fill="none" xmlns="http://www.w3.org/2000/svg">
<path d="M20.2333 25.1167V21.85C20.2333 17.65 23.6333 14.2333 27.85 14.2333H31.1167" stroke="#EA580C" stroke-width="3" stroke-linecap="round" stroke-linejoin="round"/>
<path d="M9.36667 14.25H12.6333C16.8333 14.25 20.25 17.65 20.25 21.8667V28.75" stroke="#EA580C" stroke-width="3" stroke-linecap="round" stroke-linejoin="round"/>
<path d="M11.9 11.25L8.9 14.25L11.9 17.25M28.1 11.25L31.1 14.25L28.1 17.25" stroke="#EA580C" stroke-width="1.5" stroke-linecap="round" stroke-linejoin="round"/>
<path d="M15 36.6666H25C33.3333 36.6666 36.6667 33.3333 36.6667 25V15C36.6667 6.66665 33.3333 3.33331 25 3.33331H15C6.66667 3.33331 3.33334 6.66665 3.33334 15V25C3.33334 33.3333 6.66667 36.6666 15 36.6666Z" stroke="#EA580C" stroke-width="3" stroke-linecap="round" stroke-linejoin="round"/>
</svg>
