<svg width="34" height="37" viewBox="0 0 34 37" fill="none" xmlns="http://www.w3.org/2000/svg">
<path d="M2 35.3333H32M6.33333 12.6333H3.66667C2.75 12.6333 2 13.3833 2 14.3V28.6667C2 29.5833 2.75 30.3333 3.66667 30.3333H6.33333C7.25 30.3333 8 29.5833 8 28.6667V14.3C8 13.3833 7.25 12.6333 6.33333 12.6333ZM18.3333 7.31667H15.6667C14.75 7.31667 14 8.06667 14 8.98333V28.6667C14 29.5833 14.75 30.3333 15.6667 30.3333H18.3333C19.25 30.3333 20 29.5833 20 28.6667V8.98333C20 8.06667 19.25 7.31667 18.3333 7.31667ZM30.3333 2H27.6667C26.75 2 26 2.75 26 3.66667V28.6667C26 29.5833 26.75 30.3333 27.6667 30.3333H30.3333C31.25 30.3333 32 29.5833 32 28.6667V3.66667C32 2.75 31.25 2 30.3333 2Z" stroke="#EA580C" stroke-width="3" stroke-linecap="round" stroke-linejoin="round"/>
</svg>
