<svg width="40" height="40" viewBox="0 0 40 40" fill="none" xmlns="http://www.w3.org/2000/svg">
<path d="M28.2833 24.0667C30.5667 24.45 33.0833 24.05 34.85 22.8667C37.2 21.3 37.2 18.7333 34.85 17.1667C33.0667 15.9833 30.5167 15.5833 28.2333 15.9833M11.6667 24.0667C9.38334 24.45 6.86667 24.05 5.1 22.8667C2.75 21.3 2.75 18.7333 5.1 17.1667C6.88334 15.9833 9.43334 15.5833 11.7167 15.9833M30 11.9333C29.8951 11.9167 29.7882 11.9167 29.6833 11.9333C28.5711 11.8931 27.518 11.422 26.7467 10.6196C25.9754 9.8172 25.5462 8.74634 25.55 7.63334C25.55 5.25001 27.4667 3.33334 29.85 3.33334C30.9904 3.33334 32.0842 3.78638 32.8906 4.59278C33.697 5.39919 34.15 6.49291 34.15 7.63334C34.1469 8.74714 33.7133 9.8166 32.9399 10.618C32.1664 11.4195 31.113 11.8908 30 11.9333ZM9.95 11.9333C10.05 11.9167 10.1667 11.9167 10.2667 11.9333C11.3789 11.8931 12.432 11.422 13.2033 10.6196C13.9746 9.8172 14.4038 8.74634 14.4 7.63334C14.4 5.25001 12.4833 3.33334 10.1 3.33334C8.95957 3.33334 7.86585 3.78638 7.05944 4.59278C6.25304 5.39919 5.8 6.49291 5.8 7.63334C5.81667 9.96668 7.65 11.85 9.95 11.9333ZM20 24.3833C19.8951 24.3667 19.7882 24.3667 19.6833 24.3833C18.5711 24.3431 17.518 23.872 16.7467 23.0696C15.9754 22.2672 15.5462 21.1963 15.55 20.0833C15.55 17.7 17.4667 15.7833 19.85 15.7833C20.9904 15.7833 22.0842 16.2364 22.8906 17.0428C23.697 17.8492 24.15 18.9429 24.15 20.0833C24.1333 22.4167 22.3 24.3167 20 24.3833ZM15.15 29.6333C12.8 31.2 12.8 33.7667 15.15 35.3333C17.8167 37.1167 22.1833 37.1167 24.85 35.3333C27.2 33.7667 27.2 31.2 24.85 29.6333C22.2 27.8667 17.8167 27.8667 15.15 29.6333Z" stroke="#EA580C" stroke-width="3" stroke-linecap="round" stroke-linejoin="round"/>
</svg>
