<svg width="40" height="40" viewBox="0 0 40 40" fill="none" xmlns="http://www.w3.org/2000/svg">
<path d="M3.33334 3.33331H6.23334C8.03334 3.33331 9.45001 4.88331 9.30001 6.66665L7.91668 23.2666C7.86267 23.9097 7.94282 24.5571 8.15207 25.1676C8.36132 25.7781 8.69509 26.3384 9.13224 26.8132C9.5694 27.288 10.1004 27.6667 10.6916 27.9255C11.2828 28.1843 11.9213 28.3175 12.5667 28.3166H30.3167C32.7167 28.3166 34.8167 26.35 35 23.9666L35.9 11.4666C36.1 8.69998 34 6.44998 31.2167 6.44998H9.70001M15 13.3333H35M27.0833 36.6666C27.6359 36.6666 28.1658 36.4472 28.5565 36.0565C28.9472 35.6658 29.1667 35.1358 29.1667 34.5833C29.1667 34.0308 28.9472 33.5009 28.5565 33.1102C28.1658 32.7195 27.6359 32.5 27.0833 32.5C26.5308 32.5 26.0009 32.7195 25.6102 33.1102C25.2195 33.5009 25 34.0308 25 34.5833C25 35.1358 25.2195 35.6658 25.6102 36.0565C26.0009 36.4472 26.5308 36.6666 27.0833 36.6666ZM13.75 36.6666C14.3025 36.6666 14.8324 36.4472 15.2232 36.0565C15.6139 35.6658 15.8333 35.1358 15.8333 34.5833C15.8333 34.0308 15.6139 33.5009 15.2232 33.1102C14.8324 32.7195 14.3025 32.5 13.75 32.5C13.1975 32.5 12.6676 32.7195 12.2769 33.1102C11.8862 33.5009 11.6667 34.0308 11.6667 34.5833C11.6667 35.1358 11.8862 35.6658 12.2769 36.0565C12.6676 36.4472 13.1975 36.6666 13.75 36.6666Z" stroke="#EA580C" stroke-width="3" stroke-miterlimit="10" stroke-linecap="round" stroke-linejoin="round"/>
</svg>
