<svg width="35" height="35" viewBox="0 0 35 35" fill="none" xmlns="http://www.w3.org/2000/svg">
<mask id="mask0_36_544" style="mask-type:alpha" maskUnits="userSpaceOnUse" x="0" y="0" width="35" height="35">
<rect width="34.3159" height="34.3159" fill="#D9D9D9"/>
</mask>
<g mask="url(#mask0_36_544)">
<path d="M17.1579 31.4562C15.18 31.4562 13.3212 31.0809 11.5816 30.3302C9.84195 29.5796 8.32872 28.5608 7.04187 27.274C5.75502 25.9871 4.73627 24.4739 3.98561 22.7343C3.23495 20.9946 2.85962 19.1358 2.85962 17.1579C2.85962 15.18 3.23495 13.3212 3.98561 11.5816C4.73627 9.84195 5.75502 8.32872 7.04187 7.04187C8.32872 5.75502 9.84195 4.73627 11.5816 3.98561C13.3212 3.23495 15.18 2.85962 17.1579 2.85962C18.7069 2.85962 20.1725 3.08601 21.5546 3.53879C22.9368 3.99157 24.2117 4.62308 25.3794 5.43331L23.3062 7.54231C22.4006 6.97038 21.4355 6.52356 20.4108 6.20185C19.3861 5.88013 18.3018 5.71928 17.1579 5.71928C13.9885 5.71928 11.2897 6.83335 9.06151 9.06151C6.83335 11.2897 5.71928 13.9885 5.71928 17.1579C5.71928 20.3274 6.83335 23.0262 9.06151 25.2543C11.2897 27.4825 13.9885 28.5966 17.1579 28.5966C20.3274 28.5966 23.0262 27.4825 25.2543 25.2543C27.4825 23.0262 28.5966 20.3274 28.5966 17.1579C28.5966 16.729 28.5727 16.3 28.5251 15.8711C28.4774 15.4421 28.4059 15.0251 28.3106 14.62L30.6341 12.2965C30.8962 13.0591 31.0988 13.8455 31.2417 14.6557C31.3847 15.466 31.4562 16.3 31.4562 17.1579C31.4562 19.1358 31.0809 20.9946 30.3302 22.7343C29.5796 24.4739 28.5608 25.9871 27.274 27.274C25.9871 28.5608 24.4739 29.5796 22.7343 30.3302C20.9946 31.0809 19.1358 31.4562 17.1579 31.4562ZM15.1562 23.7351L9.07938 17.6584L11.0811 15.6566L15.1562 19.7316L29.4545 5.39757L31.4562 7.39933L15.1562 23.7351Z" fill="#EA580C"/>
</g>
</svg>
