<?xml version="1.0" standalone="no"?>
<!DOCTYPE svg PUBLIC "-//W3C//DTD SVG 20010904//EN"
 "http://www.w3.org/TR/2001/REC-SVG-20010904/DTD/svg10.dtd">
<svg version="1.0" xmlns="http://www.w3.org/2000/svg"
 width="21.000000pt" height="24.000000pt" viewBox="0 0 21.000000 24.000000"
 preserveAspectRatio="xMidYMid meet">

<g transform="translate(0.000000,24.000000) scale(0.100000,-0.100000)"
fill="#000000" stroke="none">
<path d="M17 219 c-12 -7 -17 -23 -17 -60 0 -72 22 -117 66 -135 74 -31 144
26 144 119 0 31 -3 38 -17 35 -14 -2 -19 -15 -21 -50 -5 -75 -67 -113 -112
-68 -26 26 -27 77 -1 85 25 8 35 38 21 65 -12 22 -35 25 -63 9z"/>
</g>
</svg>
